<svg xmlns="http://www.w3.org/2000/svg" xmlns:xlink="http://www.w3.org/1999/xlink" width="500" zoomAndPan="magnify" viewBox="0 0 375 374.999991" height="500" preserveAspectRatio="xMidYMid meet" version="1.0"><defs><clipPath id="4c78061880"><path d="M 107 98 L 267.953125 98 L 267.953125 277.101562 L 107 277.101562 Z M 107 98 " clip-rule="nonzero"/></clipPath></defs><g clip-path="url(#4c78061880)"><path fill="#a6a6a6" d="M 267.066406 162.683594 C 266.5625 158.527344 265.941406 153.367188 263.492188 147.4375 C 260.964844 141.316406 257.753906 137.425781 254.691406 133.71875 C 249.648438 127.605469 244.929688 123.878906 240.46875 120.394531 C 233.757812 115.15625 227.492188 111.460938 222.605469 108.929688 C 219.03125 107.074219 212.695312 104.027344 204.347656 101.375 C 204.28125 101.351562 204.21875 101.332031 204.152344 101.3125 C 193.21875 97.851562 181.46875 97.851562 170.535156 101.3125 C 170.472656 101.332031 170.40625 101.351562 170.339844 101.375 C 161.992188 104.027344 155.660156 107.074219 152.082031 108.929688 C 147.195312 111.460938 140.929688 115.15625 134.21875 120.394531 C 129.757812 123.878906 125.042969 127.605469 119.996094 133.71875 C 116.933594 137.425781 113.722656 141.316406 111.195312 147.4375 C 108.75 153.367188 108.125 158.527344 107.621094 162.683594 C 107.253906 165.746094 106.875 169.03125 107.226562 173.417969 C 107.433594 175.992188 107.988281 180.171875 109.675781 184.953125 C 110.425781 187.082031 112.144531 190.46875 115.628906 197.214844 C 116.636719 199.167969 117.421875 200.566406 118.144531 201.789062 C 118.152344 201.804688 118.164062 201.824219 118.171875 201.839844 C 119.050781 203.324219 119.304688 205.078125 118.953125 206.761719 C 118.847656 207.253906 118.773438 207.78125 118.738281 208.347656 C 118.597656 210.671875 119.195312 213.171875 121.914062 217.496094 C 123.972656 220.773438 126.203125 223.304688 128.925781 226.246094 C 132.105469 229.679688 134.949219 232.117188 140.503906 236.851562 C 146.882812 242.289062 146.734375 241.757812 149.632812 244.539062 C 151.710938 246.53125 155.3125 250.015625 159.09375 255.144531 C 160.203125 256.648438 160.183594 256.746094 164.320312 262.566406 C 166.6875 265.902344 167.660156 267.230469 169.28125 268.929688 C 170.644531 270.359375 172.179688 271.945312 174.640625 273.4375 C 176.746094 274.710938 178.636719 275.378906 179.535156 275.691406 C 181.382812 276.332031 182.824219 276.605469 183.242188 276.683594 C 184.84375 276.980469 186.242188 277.070312 187.34375 277.082031 C 188.445312 277.070312 189.847656 276.980469 191.445312 276.683594 C 191.863281 276.605469 193.304688 276.332031 195.148438 275.691406 C 196.050781 275.378906 197.945312 274.710938 200.046875 273.4375 C 202.507812 271.945312 204.042969 270.359375 205.40625 268.929688 C 207.027344 267.230469 207.996094 265.902344 210.367188 262.566406 C 214.503906 256.746094 214.484375 256.648438 215.59375 255.144531 C 219.375 250.015625 222.976562 246.53125 225.054688 244.539062 C 227.953125 241.757812 227.800781 242.289062 234.183594 236.851562 C 239.738281 232.117188 242.582031 229.679688 245.761719 226.246094 C 248.488281 223.304688 250.714844 220.773438 252.773438 217.496094 C 255.488281 213.171875 256.089844 210.671875 255.949219 208.347656 C 255.917969 207.78125 255.839844 207.253906 255.738281 206.761719 C 255.386719 205.078125 255.640625 203.324219 256.515625 201.839844 C 256.523438 201.824219 256.535156 201.804688 256.546875 201.789062 C 257.269531 200.566406 258.050781 199.167969 259.058594 197.214844 C 262.542969 190.46875 264.265625 187.082031 265.015625 184.953125 C 266.699219 180.171875 267.257812 175.992188 267.460938 173.417969 C 267.8125 169.03125 267.4375 165.746094 267.066406 162.683594 " fill-opacity="1" fill-rule="nonzero"/></g><path fill="#1e2226" d="M 178.460938 233.601562 C 177.464844 234.210938 176.03125 234.40625 173.167969 234.796875 C 171.726562 234.992188 168.296875 235.363281 163.773438 234.796875 C 158.871094 234.179688 155.339844 232.792969 152.394531 231.613281 C 146.464844 229.238281 142.148438 226.394531 139.828125 224.71875 C 134.472656 220.871094 130.761719 216.839844 128.445312 213.984375 C 124.121094 208.648438 121.839844 203.925781 120.507812 201.125 C 118.582031 197.078125 116.484375 192.667969 115.480469 186.410156 C 114.886719 182.726562 114.019531 176.929688 116.007812 169.972656 C 117.097656 166.171875 119.003906 159.496094 125.269531 155.523438 C 129.015625 153.148438 132.78125 152.710938 134.269531 152.609375 C 138.175781 152.332031 141.082031 153.332031 143.53125 154.199219 C 144.636719 154.589844 149.5625 156.402344 155.835938 161.753906 C 157.261719 162.972656 162.1875 167.296875 167.082031 174.746094 C 171.222656 181.039062 173.167969 186.261719 175.550781 192.640625 C 177.746094 198.523438 179.808594 204.136719 180.976562 211.863281 C 181.929688 218.160156 183.773438 230.359375 178.460938 233.601562 " fill-opacity="1" fill-rule="nonzero"/><path fill="#807559" d="M 116.867188 154.925781 C 116.867188 154.925781 116.976562 154.75 117.183594 154.421875 C 117.390625 154.09375 117.699219 153.613281 118.132812 153.027344 C 118.558594 152.441406 119.101562 151.742188 119.78125 150.984375 C 120.457031 150.226562 121.257812 149.410156 122.203125 148.578125 C 123.144531 147.75 124.214844 146.90625 125.429688 146.125 C 126.648438 145.339844 127.980469 144.613281 129.441406 143.992188 C 130.902344 143.386719 132.472656 142.886719 134.121094 142.597656 L 134.425781 142.546875 L 134.59375 142.519531 L 134.742188 142.496094 L 135.347656 142.414062 C 135.765625 142.371094 136.199219 142.316406 136.617188 142.296875 C 137.457031 142.234375 138.308594 142.230469 139.152344 142.269531 C 140.84375 142.351562 142.527344 142.636719 144.128906 143.058594 C 144.921875 143.261719 145.714844 143.496094 146.484375 143.777344 C 147.25 144.050781 147.992188 144.359375 148.707031 144.695312 C 150.144531 145.363281 151.441406 146.152344 152.644531 146.925781 C 153.855469 147.707031 154.9375 148.527344 155.894531 149.335938 C 157.816406 150.945312 159.210938 152.5 160.136719 153.617188 C 160.597656 154.175781 160.941406 154.632812 161.171875 154.945312 C 161.402344 155.257812 161.527344 155.425781 161.527344 155.425781 C 161.527344 155.425781 161.386719 155.273438 161.121094 154.988281 C 160.863281 154.699219 160.464844 154.292969 159.960938 153.777344 C 158.941406 152.753906 157.441406 151.34375 155.46875 149.875 C 154.488281 149.140625 153.382812 148.398438 152.179688 147.683594 C 150.964844 146.976562 149.660156 146.261719 148.273438 145.652344 C 147.578125 145.347656 146.863281 145.070312 146.121094 144.824219 C 145.386719 144.582031 144.625 144.371094 143.84375 144.175781 C 142.300781 143.78125 140.703125 143.53125 139.09375 143.460938 C 138.292969 143.417969 137.488281 143.414062 136.6875 143.464844 C 136.285156 143.480469 135.902344 143.527344 135.503906 143.566406 L 134.894531 143.644531 L 134.746094 143.664062 L 134.609375 143.6875 L 134.316406 143.734375 C 132.753906 144 131.242188 144.410156 129.835938 144.964844 C 128.429688 145.527344 127.09375 146.171875 125.894531 146.878906 C 124.695312 147.59375 123.605469 148.351562 122.636719 149.105469 C 121.675781 149.859375 120.824219 150.609375 120.105469 151.300781 C 119.390625 152 118.789062 152.632812 118.316406 153.175781 C 117.363281 154.257812 116.867188 154.925781 116.867188 154.925781 " fill-opacity="1" fill-rule="nonzero"/><path fill="#807559" d="M 167.875 163.378906 C 167.875 163.378906 167.960938 163.480469 168.121094 163.679688 C 168.277344 163.875 168.515625 164.160156 168.796875 164.539062 C 169.085938 164.914062 169.429688 165.371094 169.816406 165.902344 C 170.207031 166.429688 170.640625 167.03125 171.089844 167.707031 C 171.542969 168.375 172.023438 169.109375 172.515625 169.894531 C 173 170.683594 173.515625 171.519531 174.003906 172.40625 C 174.503906 173.289062 175.007812 174.207031 175.488281 175.15625 C 175.96875 176.105469 176.4375 177.078125 176.894531 178.058594 C 177.335938 179.042969 177.765625 180.035156 178.164062 181.023438 C 178.570312 182.007812 178.925781 182.992188 179.269531 183.945312 C 179.945312 185.855469 180.496094 187.664062 180.90625 189.230469 C 181.328125 190.796875 181.597656 192.117188 181.792969 193.039062 C 181.894531 193.5 181.953125 193.867188 182 194.117188 C 182.042969 194.363281 182.066406 194.496094 182.066406 194.496094 C 182.066406 194.496094 181.914062 193.980469 181.644531 193.078125 C 181.511719 192.625 181.347656 192.078125 181.148438 191.453125 C 180.945312 190.832031 180.71875 190.128906 180.46875 189.363281 C 179.964844 187.832031 179.335938 186.066406 178.613281 184.1875 C 178.253906 183.25 177.859375 182.289062 177.453125 181.316406 C 177.050781 180.34375 176.617188 179.363281 176.171875 178.390625 C 175.730469 177.414062 175.273438 176.445312 174.804688 175.5 C 174.332031 174.554688 173.871094 173.628906 173.394531 172.742188 C 172.453125 170.964844 171.527344 169.332031 170.707031 167.949219 C 169.882812 166.566406 169.183594 165.417969 168.671875 164.628906 C 168.167969 163.832031 167.875 163.378906 167.875 163.378906 " fill-opacity="1" fill-rule="nonzero"/><path fill="#1e2226" d="M 184.925781 250.433594 C 184.921875 250.472656 184.863281 250.46875 184.859375 250.429688 C 184.65625 249.3125 184.351562 248.410156 184.078125 247.746094 C 183.78125 247.015625 183.5 246.324219 182.917969 245.550781 C 182.074219 244.429688 180.996094 243.660156 180.859375 243.566406 C 180.136719 243.058594 179.613281 242.984375 179.207031 242.289062 C 179.058594 242.03125 178.855469 241.460938 179.027344 241.027344 C 179.191406 240.609375 179.5625 240.292969 179.773438 240.226562 C 180.34375 240.039062 180.96875 240.25 181.332031 240.355469 C 181.472656 240.394531 182.082031 240.679688 182.859375 241.339844 C 183.023438 241.480469 183.761719 242.121094 184.339844 243.285156 C 184.621094 243.851562 184.839844 244.492188 184.996094 245.425781 C 185.3125 247.296875 185.160156 249.082031 184.925781 250.433594 " fill-opacity="1" fill-rule="nonzero"/><path fill="#1e2226" d="M 189.757812 250.433594 C 189.765625 250.472656 189.824219 250.46875 189.832031 250.429688 C 190.03125 249.3125 190.335938 248.410156 190.609375 247.746094 C 190.90625 247.015625 191.183594 246.324219 191.769531 245.550781 C 192.613281 244.429688 193.691406 243.660156 193.828125 243.566406 C 194.550781 243.058594 195.074219 242.984375 195.480469 242.289062 C 195.628906 242.03125 195.835938 241.460938 195.664062 241.027344 C 195.496094 240.609375 195.125 240.292969 194.914062 240.226562 C 194.34375 240.039062 193.71875 240.25 193.359375 240.355469 C 193.214844 240.394531 192.605469 240.679688 191.832031 241.339844 C 191.664062 241.480469 190.925781 242.121094 190.351562 243.285156 C 190.066406 243.851562 189.847656 244.492188 189.691406 245.425781 C 189.378906 247.296875 189.527344 249.082031 189.757812 250.433594 " fill-opacity="1" fill-rule="nonzero"/><path fill="#ffffff" d="M 131.226562 181.574219 C 131.429688 180.761719 131.402344 181.125 131.605469 179.730469 C 131.789062 178.460938 131.902344 177.574219 132.136719 176.882812 C 132.8125 174.863281 133.140625 174.488281 133.34375 173.355469 C 133.46875 172.640625 133.71875 171.230469 132.878906 169.972656 C 132.0625 168.753906 130.730469 168.441406 130.433594 168.382812 C 128.902344 168.070312 127.667969 168.792969 126.792969 169.308594 C 125.363281 170.148438 124.613281 171.253906 124.410156 171.5625 C 123.582031 172.839844 123.175781 174.046875 122.945312 176.003906 C 122.75 177.683594 122.695312 179.328125 123.269531 181.347656 C 123.652344 182.691406 124.101562 183.710938 125.140625 184.421875 C 126.273438 185.199219 128.0625 185.402344 129.296875 184.753906 C 130.855469 183.933594 131.085938 182.128906 131.226562 181.574219 " fill-opacity="1" fill-rule="nonzero"/><path fill="#ffffff" d="M 131.109375 191.8125 C 131.109375 193.230469 129.964844 194.375 128.550781 194.375 C 127.140625 194.375 125.992188 193.230469 125.992188 191.8125 C 125.992188 190.398438 127.140625 189.25 128.550781 189.25 C 129.964844 189.25 131.109375 190.398438 131.109375 191.8125 " fill-opacity="1" fill-rule="nonzero"/><path fill="#1e2226" d="M 195.925781 233.601562 C 196.925781 234.210938 198.359375 234.40625 201.21875 234.796875 C 202.664062 234.992188 206.089844 235.363281 210.613281 234.796875 C 215.519531 234.179688 219.050781 232.792969 221.996094 231.613281 C 227.925781 229.238281 232.238281 226.394531 234.5625 224.71875 C 239.917969 220.871094 243.628906 216.839844 245.945312 213.984375 C 250.265625 208.648438 252.550781 203.925781 253.882812 201.125 C 255.808594 197.078125 257.902344 192.667969 258.910156 186.410156 C 259.503906 182.726562 260.371094 176.929688 258.382812 169.972656 C 257.292969 166.171875 255.386719 159.496094 249.121094 155.523438 C 245.375 153.148438 241.609375 152.710938 240.121094 152.609375 C 236.214844 152.332031 233.308594 153.332031 230.859375 154.199219 C 229.757812 154.589844 224.824219 156.402344 218.554688 161.753906 C 217.128906 162.972656 212.203125 167.296875 207.308594 174.746094 C 203.167969 181.039062 201.21875 186.261719 198.839844 192.640625 C 196.644531 198.523438 194.582031 204.136719 193.414062 211.863281 C 192.460938 218.160156 190.613281 230.359375 195.925781 233.601562 " fill-opacity="1" fill-rule="nonzero"/><path fill="#1e2226" d="M 198.902344 257.824219 C 198.871094 258.160156 193.683594 255.492188 187.195312 255.542969 C 180.707031 255.496094 175.519531 258.160156 175.488281 257.824219 C 175.441406 257.589844 180.625 254.417969 187.195312 254.464844 C 193.765625 254.417969 198.953125 257.589844 198.902344 257.824219 " fill-opacity="1" fill-rule="nonzero"/><path fill="#807559" d="M 161.121094 245.304688 C 161.121094 245.304688 161.25 245.355469 161.488281 245.445312 C 161.726562 245.53125 162.070312 245.683594 162.488281 245.914062 C 162.90625 246.148438 163.398438 246.460938 163.917969 246.878906 C 164.433594 247.300781 164.984375 247.820312 165.515625 248.453125 C 166.582031 249.710938 167.59375 251.363281 168.410156 253.25 C 168.820312 254.183594 169.210938 255.171875 169.585938 256.171875 C 169.960938 257.171875 170.339844 258.1875 170.75 259.179688 C 171.15625 260.179688 171.605469 261.15625 172.113281 262.078125 C 172.625 263 173.203125 263.867188 173.828125 264.640625 C 174.460938 265.414062 175.132812 266.121094 175.816406 266.738281 C 176.496094 267.355469 177.199219 267.878906 177.867188 268.324219 C 179.210938 269.21875 180.441406 269.792969 181.324219 270.128906 C 181.546875 270.214844 181.742188 270.289062 181.914062 270.351562 C 182.085938 270.410156 182.238281 270.460938 182.359375 270.5 C 182.601562 270.578125 182.726562 270.621094 182.726562 270.621094 C 182.726562 270.621094 182.597656 270.59375 182.347656 270.53125 C 182.101562 270.476562 181.738281 270.386719 181.285156 270.242188 C 180.832031 270.09375 180.285156 269.898438 179.675781 269.636719 C 179.066406 269.367188 178.386719 269.046875 177.6875 268.609375 C 176.289062 267.761719 174.757812 266.558594 173.425781 264.972656 C 172.757812 264.179688 172.136719 263.308594 171.613281 262.359375 C 171.082031 261.414062 170.617188 260.417969 170.199219 259.410156 C 169.378906 257.382812 168.707031 255.320312 167.929688 253.453125 C 167.160156 251.589844 166.257812 249.925781 165.257812 248.664062 C 164.757812 248.03125 164.253906 247.492188 163.773438 247.046875 C 163.289062 246.605469 162.824219 246.269531 162.429688 246.011719 C 162.027344 245.765625 161.707031 245.578125 161.472656 245.476562 C 161.246094 245.363281 161.121094 245.304688 161.121094 245.304688 " fill-opacity="1" fill-rule="nonzero"/><path fill="#807559" d="M 172.859375 250.652344 C 172.859375 250.652344 172.8125 250.515625 172.730469 250.253906 C 172.652344 249.992188 172.511719 249.613281 172.320312 249.144531 C 172.132812 248.671875 171.859375 248.113281 171.519531 247.496094 C 171.171875 246.878906 170.730469 246.21875 170.195312 245.535156 C 169.664062 244.855469 169.023438 244.164062 168.277344 243.515625 C 167.527344 242.867188 166.675781 242.285156 165.730469 241.753906 C 164.796875 241.230469 163.765625 240.789062 162.699219 240.398438 C 161.632812 240.003906 160.523438 239.667969 159.40625 239.347656 C 158.289062 239.023438 157.164062 238.710938 156.0625 238.375 C 154.960938 238.039062 153.878906 237.65625 152.867188 237.230469 C 150.828125 236.375 149.046875 235.328125 147.601562 234.324219 C 146.15625 233.320312 145.0625 232.339844 144.316406 231.640625 C 143.949219 231.285156 143.667969 231 143.480469 230.796875 C 143.292969 230.601562 143.191406 230.492188 143.191406 230.492188 C 143.191406 230.492188 143.300781 230.589844 143.503906 230.773438 C 143.703125 230.960938 144.011719 231.21875 144.394531 231.554688 C 144.785156 231.878906 145.265625 232.273438 145.832031 232.691406 C 146.402344 233.117188 147.0625 233.570312 147.789062 234.046875 C 149.246094 234.992188 151.050781 235.941406 153.0625 236.742188 C 155.074219 237.550781 157.320312 238.136719 159.570312 238.777344 C 160.691406 239.105469 161.8125 239.449219 162.898438 239.855469 C 163.988281 240.261719 165.023438 240.742188 165.992188 241.300781 C 166.945312 241.847656 167.824219 242.503906 168.566406 243.195312 C 169.3125 243.886719 169.941406 244.617188 170.464844 245.332031 C 170.988281 246.046875 171.402344 246.75 171.710938 247.394531 C 172.023438 248.039062 172.265625 248.617188 172.425781 249.101562 C 172.597656 249.589844 172.699219 249.976562 172.761719 250.242188 C 172.828125 250.511719 172.859375 250.652344 172.859375 250.652344 " fill-opacity="1" fill-rule="nonzero"/><path fill="#807559" d="M 152.34375 128.269531 C 152.34375 128.269531 152.523438 128.015625 152.832031 127.574219 C 152.988281 127.355469 153.1875 127.09375 153.429688 126.808594 C 153.550781 126.660156 153.679688 126.503906 153.8125 126.339844 C 153.949219 126.179688 154.105469 126.023438 154.261719 125.851562 C 154.570312 125.5 154.925781 125.144531 155.3125 124.78125 C 155.695312 124.40625 156.125 124.042969 156.570312 123.667969 C 157.03125 123.3125 157.488281 122.925781 158.003906 122.585938 C 158.5 122.230469 159.03125 121.910156 159.554688 121.574219 C 160.097656 121.273438 160.636719 120.960938 161.1875 120.699219 C 161.730469 120.410156 162.289062 120.195312 162.824219 119.960938 C 163.367188 119.75 163.890625 119.546875 164.402344 119.394531 C 164.65625 119.316406 164.902344 119.238281 165.140625 119.164062 C 165.378906 119.097656 165.617188 119.042969 165.84375 118.984375 C 166.070312 118.929688 166.28125 118.871094 166.488281 118.828125 C 166.695312 118.789062 166.894531 118.753906 167.078125 118.71875 C 167.445312 118.644531 167.769531 118.59375 168.039062 118.5625 C 168.574219 118.496094 168.882812 118.46875 168.882812 118.46875 C 168.882812 118.46875 168.589844 118.558594 168.074219 118.71875 C 167.816406 118.789062 167.507812 118.894531 167.152344 119.011719 C 166.800781 119.125 166.402344 119.261719 165.976562 119.421875 C 165.542969 119.570312 165.085938 119.757812 164.605469 119.953125 C 164.117188 120.136719 163.621094 120.382812 163.101562 120.605469 C 162.589844 120.851562 162.0625 121.105469 161.535156 121.382812 C 161 121.648438 160.484375 121.960938 159.957031 122.257812 C 159.445312 122.578125 158.921875 122.878906 158.433594 123.222656 C 157.933594 123.546875 157.460938 123.890625 156.996094 124.222656 C 156.554688 124.570312 156.101562 124.886719 155.703125 125.226562 C 155.300781 125.558594 154.914062 125.867188 154.578125 126.175781 C 154.230469 126.472656 153.921875 126.753906 153.652344 127.011719 C 153.382812 127.261719 153.140625 127.484375 152.953125 127.679688 C 152.566406 128.050781 152.34375 128.269531 152.34375 128.269531 " fill-opacity="1" fill-rule="nonzero"/><path fill="#807559" d="M 137.996094 131.632812 C 137.996094 131.632812 138.445312 131.050781 139.230469 130.03125 C 139.429688 129.78125 139.648438 129.503906 139.886719 129.199219 C 140.140625 128.902344 140.414062 128.582031 140.707031 128.246094 C 141 127.902344 141.3125 127.539062 141.636719 127.15625 C 141.96875 126.773438 142.347656 126.40625 142.722656 126.003906 C 143.105469 125.605469 143.507812 125.1875 143.917969 124.757812 C 144.351562 124.347656 144.800781 123.925781 145.257812 123.488281 C 145.488281 123.269531 145.722656 123.050781 145.957031 122.828125 C 146.199219 122.609375 146.453125 122.398438 146.703125 122.179688 C 147.207031 121.746094 147.726562 121.304688 148.25 120.855469 C 148.796875 120.429688 149.351562 119.996094 149.914062 119.5625 C 150.195312 119.34375 150.472656 119.117188 150.765625 118.90625 C 151.058594 118.699219 151.355469 118.492188 151.65625 118.285156 C 152.253906 117.875 152.839844 117.429688 153.464844 117.046875 C 154.085938 116.652344 154.710938 116.257812 155.332031 115.863281 C 155.964844 115.480469 156.617188 115.132812 157.253906 114.769531 C 157.574219 114.589844 157.890625 114.402344 158.214844 114.230469 C 158.542969 114.066406 158.867188 113.902344 159.191406 113.738281 C 159.84375 113.417969 160.476562 113.070312 161.132812 112.789062 C 161.78125 112.503906 162.425781 112.222656 163.058594 111.941406 C 163.691406 111.660156 164.332031 111.4375 164.953125 111.195312 C 165.574219 110.960938 166.179688 110.71875 166.785156 110.535156 C 167.390625 110.339844 167.972656 110.148438 168.542969 109.964844 C 169.105469 109.773438 169.671875 109.652344 170.199219 109.5 C 170.734375 109.359375 171.246094 109.222656 171.730469 109.09375 C 172.222656 108.992188 172.691406 108.894531 173.128906 108.800781 C 173.570312 108.710938 173.980469 108.625 174.359375 108.546875 C 174.738281 108.46875 175.09375 108.425781 175.410156 108.375 C 176.679688 108.183594 177.40625 108.074219 177.40625 108.074219 C 177.40625 108.074219 176.691406 108.238281 175.441406 108.523438 C 175.128906 108.597656 174.777344 108.660156 174.40625 108.761719 C 174.035156 108.863281 173.628906 108.972656 173.199219 109.089844 C 172.769531 109.207031 172.3125 109.332031 171.828125 109.464844 C 171.351562 109.613281 170.851562 109.773438 170.328125 109.9375 C 169.277344 110.25 168.164062 110.667969 166.984375 111.09375 C 166.390625 111.292969 165.800781 111.554688 165.191406 111.804688 C 164.585938 112.066406 163.953125 112.292969 163.335938 112.585938 C 162.714844 112.871094 162.085938 113.164062 161.445312 113.460938 C 161.125 113.601562 160.808594 113.769531 160.496094 113.933594 C 160.179688 114.097656 159.859375 114.261719 159.542969 114.425781 C 159.222656 114.589844 158.902344 114.75 158.578125 114.914062 C 158.261719 115.085938 157.949219 115.273438 157.632812 115.453125 C 157.007812 115.816406 156.363281 116.164062 155.742188 116.546875 C 155.125 116.929688 154.503906 117.316406 153.890625 117.703125 C 153.265625 118.078125 152.691406 118.515625 152.09375 118.914062 C 150.894531 119.707031 149.789062 120.589844 148.6875 121.402344 C 148.15625 121.832031 147.636719 122.261719 147.125 122.679688 C 146.871094 122.886719 146.613281 123.085938 146.367188 123.296875 C 146.128906 123.511719 145.890625 123.71875 145.65625 123.929688 C 145.183594 124.34375 144.726562 124.75 144.285156 125.140625 C 143.855469 125.550781 143.441406 125.945312 143.046875 126.324219 C 142.652344 126.707031 142.265625 127.0625 141.914062 127.417969 C 141.566406 127.777344 141.234375 128.117188 140.925781 128.4375 C 140.617188 128.757812 140.324219 129.058594 140.054688 129.335938 C 139.796875 129.625 139.5625 129.890625 139.347656 130.128906 C 138.488281 131.085938 137.996094 131.632812 137.996094 131.632812 " fill-opacity="1" fill-rule="nonzero"/><path fill="#807559" d="M 257.820312 154.925781 C 257.820312 154.925781 257.710938 154.75 257.507812 154.421875 C 257.296875 154.09375 256.988281 153.613281 256.554688 153.027344 C 256.128906 152.441406 255.585938 151.742188 254.910156 150.984375 C 254.230469 150.226562 253.429688 149.410156 252.484375 148.578125 C 251.542969 147.75 250.472656 146.90625 249.261719 146.125 C 248.042969 145.339844 246.707031 144.613281 245.246094 143.992188 C 243.789062 143.386719 242.210938 142.886719 240.570312 142.597656 L 240.261719 142.546875 L 240.097656 142.519531 L 239.945312 142.496094 L 239.335938 142.414062 C 238.921875 142.371094 238.488281 142.316406 238.070312 142.296875 C 237.230469 142.234375 236.378906 142.230469 235.535156 142.269531 C 233.839844 142.351562 232.160156 142.636719 230.558594 143.058594 C 229.765625 143.261719 228.972656 143.496094 228.207031 143.777344 C 227.4375 144.050781 226.695312 144.359375 225.980469 144.695312 C 224.542969 145.363281 223.246094 146.152344 222.042969 146.925781 C 220.832031 147.707031 219.75 148.527344 218.792969 149.335938 C 216.871094 150.945312 215.476562 152.5 214.550781 153.617188 C 214.089844 154.175781 213.742188 154.632812 213.515625 154.945312 C 213.285156 155.257812 213.164062 155.425781 213.164062 155.425781 C 213.164062 155.425781 213.304688 155.273438 213.566406 154.988281 C 213.824219 154.699219 214.222656 154.292969 214.726562 153.777344 C 215.742188 152.753906 217.25 151.34375 219.214844 149.875 C 220.199219 149.140625 221.308594 148.398438 222.507812 147.683594 C 223.726562 146.976562 225.027344 146.261719 226.414062 145.652344 C 227.105469 145.347656 227.828125 145.070312 228.566406 144.824219 C 229.300781 144.582031 230.0625 144.371094 230.84375 144.175781 C 232.390625 143.78125 233.984375 143.53125 235.589844 143.460938 C 236.394531 143.417969 237.199219 143.414062 238 143.464844 C 238.402344 143.480469 238.785156 143.527344 239.183594 143.566406 L 239.789062 143.644531 L 239.945312 143.664062 L 240.082031 143.6875 L 240.371094 143.734375 C 241.933594 144 243.445312 144.410156 244.855469 144.964844 C 246.253906 145.527344 247.597656 146.171875 248.792969 146.878906 C 249.992188 147.59375 251.085938 148.351562 252.050781 149.105469 C 253.011719 149.859375 253.863281 150.609375 254.582031 151.300781 C 255.296875 152 255.898438 152.632812 256.375 153.175781 C 257.328125 154.257812 257.820312 154.925781 257.820312 154.925781 " fill-opacity="1" fill-rule="nonzero"/><path fill="#807559" d="M 206.8125 163.378906 C 206.8125 163.378906 206.726562 163.480469 206.566406 163.679688 C 206.410156 163.875 206.171875 164.160156 205.890625 164.539062 C 205.601562 164.914062 205.257812 165.371094 204.871094 165.902344 C 204.484375 166.429688 204.046875 167.03125 203.597656 167.707031 C 203.140625 168.375 202.664062 169.109375 202.171875 169.894531 C 201.6875 170.683594 201.175781 171.519531 200.679688 172.40625 C 200.183594 173.289062 199.679688 174.207031 199.199219 175.15625 C 198.714844 176.105469 198.25 177.078125 197.792969 178.058594 C 197.351562 179.042969 196.921875 180.035156 196.523438 181.023438 C 196.117188 182.007812 195.761719 182.992188 195.417969 183.945312 C 194.742188 185.855469 194.191406 187.664062 193.78125 189.230469 C 193.359375 190.796875 193.085938 192.117188 192.890625 193.039062 C 192.792969 193.5 192.734375 193.867188 192.6875 194.117188 C 192.644531 194.363281 192.621094 194.496094 192.621094 194.496094 C 192.621094 194.496094 192.773438 193.980469 193.042969 193.078125 C 193.175781 192.625 193.339844 192.078125 193.539062 191.453125 C 193.742188 190.832031 193.96875 190.128906 194.21875 189.363281 C 194.726562 187.832031 195.351562 186.066406 196.074219 184.1875 C 196.433594 183.25 196.828125 182.289062 197.234375 181.316406 C 197.632812 180.34375 198.070312 179.363281 198.515625 178.390625 C 198.957031 177.414062 199.414062 176.445312 199.886719 175.5 C 200.355469 174.554688 200.816406 173.628906 201.292969 172.742188 C 202.234375 170.964844 203.160156 169.332031 203.980469 167.949219 C 204.804688 166.566406 205.503906 165.417969 206.015625 164.628906 C 206.523438 163.832031 206.8125 163.378906 206.8125 163.378906 " fill-opacity="1" fill-rule="nonzero"/><path fill="#ffffff" d="M 243.464844 181.574219 C 243.257812 180.761719 243.28125 181.125 243.082031 179.730469 C 242.898438 178.460938 242.785156 177.574219 242.554688 176.882812 C 241.878906 174.863281 241.546875 174.488281 241.347656 173.355469 C 241.21875 172.640625 240.972656 171.230469 241.808594 169.972656 C 242.621094 168.753906 243.957031 168.441406 244.257812 168.382812 C 245.789062 168.070312 247.019531 168.792969 247.894531 169.308594 C 249.320312 170.148438 250.074219 171.253906 250.277344 171.5625 C 251.105469 172.839844 251.511719 174.046875 251.738281 176.003906 C 251.9375 177.683594 251.992188 179.328125 251.417969 181.347656 C 251.039062 182.691406 250.589844 183.710938 249.550781 184.421875 C 248.414062 185.199219 246.625 185.402344 245.390625 184.753906 C 243.832031 183.933594 243.601562 182.128906 243.464844 181.574219 " fill-opacity="1" fill-rule="nonzero"/><path fill="#ffffff" d="M 243.578125 191.8125 C 243.578125 193.230469 244.722656 194.375 246.136719 194.375 C 247.550781 194.375 248.695312 193.230469 248.695312 191.8125 C 248.695312 190.398438 247.550781 189.25 246.136719 189.25 C 244.722656 189.25 243.578125 190.398438 243.578125 191.8125 " fill-opacity="1" fill-rule="nonzero"/><path fill="#807559" d="M 213.5625 245.304688 C 213.5625 245.304688 213.445312 245.363281 213.214844 245.476562 C 212.980469 245.578125 212.65625 245.765625 212.257812 246.011719 C 211.859375 246.269531 211.398438 246.605469 210.914062 247.046875 C 210.433594 247.492188 209.929688 248.03125 209.433594 248.664062 C 208.429688 249.925781 207.523438 251.589844 206.757812 253.453125 C 205.984375 255.320312 205.308594 257.382812 204.484375 259.410156 C 204.070312 260.417969 203.605469 261.414062 203.074219 262.359375 C 202.550781 263.308594 201.929688 264.179688 201.261719 264.972656 C 199.929688 266.558594 198.398438 267.761719 196.996094 268.609375 C 196.300781 269.046875 195.621094 269.367188 195.011719 269.636719 C 194.402344 269.898438 193.855469 270.09375 193.40625 270.242188 C 192.949219 270.386719 192.589844 270.476562 192.339844 270.53125 C 192.09375 270.59375 191.960938 270.621094 191.960938 270.621094 C 191.960938 270.621094 192.089844 270.578125 192.332031 270.5 C 192.453125 270.460938 192.597656 270.410156 192.773438 270.351562 C 192.945312 270.289062 193.144531 270.214844 193.363281 270.128906 C 194.246094 269.792969 195.476562 269.21875 196.816406 268.324219 C 197.488281 267.878906 198.191406 267.355469 198.871094 266.738281 C 199.554688 266.121094 200.222656 265.414062 200.859375 264.640625 C 201.488281 263.867188 202.0625 263 202.574219 262.078125 C 203.082031 261.15625 203.53125 260.179688 203.9375 259.179688 C 204.347656 258.1875 204.726562 257.171875 205.101562 256.171875 C 205.476562 255.171875 205.867188 254.183594 206.277344 253.25 C 207.09375 251.363281 208.109375 249.710938 209.171875 248.453125 C 209.699219 247.820312 210.253906 247.300781 210.769531 246.878906 C 211.289062 246.460938 211.78125 246.148438 212.199219 245.914062 C 212.617188 245.683594 212.960938 245.53125 213.203125 245.445312 C 213.4375 245.355469 213.5625 245.304688 213.5625 245.304688 " fill-opacity="1" fill-rule="nonzero"/><path fill="#807559" d="M 201.828125 250.652344 C 201.828125 250.652344 201.863281 250.511719 201.925781 250.242188 C 201.988281 249.976562 202.089844 249.589844 202.261719 249.101562 C 202.421875 248.617188 202.664062 248.039062 202.976562 247.394531 C 203.289062 246.75 203.699219 246.046875 204.226562 245.332031 C 204.746094 244.617188 205.375 243.886719 206.121094 243.195312 C 206.863281 242.503906 207.742188 241.847656 208.691406 241.300781 C 209.660156 240.742188 210.699219 240.261719 211.789062 239.855469 C 212.875 239.449219 213.996094 239.105469 215.117188 238.777344 C 217.367188 238.136719 219.609375 237.550781 221.628906 236.742188 C 223.632812 235.941406 225.441406 234.992188 226.898438 234.046875 C 227.625 233.570312 228.289062 233.117188 228.855469 232.691406 C 229.421875 232.273438 229.902344 231.878906 230.292969 231.554688 C 230.675781 231.21875 230.984375 230.960938 231.183594 230.773438 C 231.386719 230.589844 231.496094 230.492188 231.496094 230.492188 C 231.496094 230.492188 231.394531 230.601562 231.207031 230.796875 C 231.019531 231 230.738281 231.285156 230.371094 231.640625 C 229.625 232.339844 228.53125 233.320312 227.085938 234.324219 C 225.640625 235.328125 223.863281 236.375 221.820312 237.230469 C 220.8125 237.65625 219.726562 238.039062 218.628906 238.375 C 217.527344 238.710938 216.398438 239.023438 215.285156 239.347656 C 214.164062 239.667969 213.054688 240.003906 211.988281 240.398438 C 210.925781 240.789062 209.890625 241.230469 208.960938 241.753906 C 208.011719 242.285156 207.160156 242.867188 206.410156 243.515625 C 205.664062 244.164062 205.023438 244.855469 204.488281 245.535156 C 203.960938 246.21875 203.515625 246.878906 203.171875 247.496094 C 202.828125 248.113281 202.554688 248.671875 202.367188 249.144531 C 202.175781 249.613281 202.035156 249.992188 201.957031 250.253906 C 201.871094 250.515625 201.828125 250.652344 201.828125 250.652344 " fill-opacity="1" fill-rule="nonzero"/><path fill="#807559" d="M 222.34375 128.269531 C 222.34375 128.269531 222.121094 128.050781 221.734375 127.679688 C 221.546875 127.484375 221.304688 127.261719 221.035156 127.011719 C 220.765625 126.753906 220.457031 126.472656 220.109375 126.175781 C 219.769531 125.867188 219.386719 125.558594 218.984375 125.226562 C 218.585938 124.886719 218.136719 124.570312 217.691406 124.222656 C 217.230469 123.890625 216.753906 123.546875 216.253906 123.222656 C 215.765625 122.878906 215.242188 122.578125 214.730469 122.257812 C 214.203125 121.960938 213.6875 121.648438 213.152344 121.382812 C 212.628906 121.105469 212.097656 120.851562 211.585938 120.605469 C 211.066406 120.382812 210.570312 120.136719 210.085938 119.953125 C 209.601562 119.757812 209.144531 119.570312 208.710938 119.421875 C 208.285156 119.261719 207.890625 119.125 207.535156 119.011719 C 207.179688 118.894531 206.871094 118.789062 206.613281 118.71875 C 206.101562 118.558594 205.808594 118.46875 205.808594 118.46875 C 205.808594 118.46875 206.113281 118.496094 206.648438 118.5625 C 206.917969 118.59375 207.238281 118.644531 207.609375 118.71875 C 207.792969 118.753906 207.992188 118.789062 208.199219 118.828125 C 208.40625 118.871094 208.621094 118.929688 208.84375 118.984375 C 209.070312 119.042969 209.304688 119.097656 209.546875 119.164062 C 209.785156 119.238281 210.035156 119.316406 210.289062 119.394531 C 210.796875 119.546875 211.324219 119.75 211.863281 119.960938 C 212.394531 120.195312 212.960938 120.410156 213.5 120.699219 C 214.050781 120.960938 214.589844 121.273438 215.132812 121.574219 C 215.65625 121.910156 216.191406 122.230469 216.6875 122.585938 C 217.195312 122.925781 217.660156 123.3125 218.121094 123.667969 C 218.5625 124.042969 218.992188 124.40625 219.371094 124.78125 C 219.761719 125.144531 220.117188 125.5 220.425781 125.851562 C 220.582031 126.023438 220.738281 126.179688 220.875 126.339844 C 221.011719 126.503906 221.136719 126.660156 221.257812 126.808594 C 221.5 127.09375 221.699219 127.355469 221.855469 127.574219 C 222.164062 128.015625 222.34375 128.269531 222.34375 128.269531 " fill-opacity="1" fill-rule="nonzero"/><path fill="#807559" d="M 236.691406 131.632812 C 236.691406 131.632812 236.199219 131.085938 235.339844 130.128906 C 235.128906 129.890625 234.890625 129.625 234.632812 129.335938 C 234.363281 129.058594 234.074219 128.757812 233.761719 128.4375 C 233.449219 128.117188 233.121094 127.777344 232.773438 127.417969 C 232.425781 127.0625 232.035156 126.707031 231.640625 126.324219 C 231.246094 125.945312 230.832031 125.550781 230.40625 125.140625 C 229.960938 124.75 229.503906 124.34375 229.035156 123.929688 C 228.800781 123.71875 228.5625 123.511719 228.320312 123.296875 C 228.074219 123.085938 227.816406 122.886719 227.5625 122.679688 C 227.054688 122.261719 226.53125 121.832031 226 121.402344 C 224.902344 120.589844 223.792969 119.707031 222.597656 118.914062 C 222 118.515625 221.417969 118.078125 220.796875 117.703125 C 220.183594 117.316406 219.5625 116.929688 218.945312 116.546875 C 218.324219 116.164062 217.683594 115.816406 217.054688 115.453125 C 216.738281 115.273438 216.425781 115.085938 216.109375 114.914062 C 215.785156 114.75 215.464844 114.589844 215.148438 114.425781 C 214.828125 114.261719 214.507812 114.097656 214.191406 113.933594 C 213.878906 113.769531 213.5625 113.601562 213.242188 113.460938 C 212.605469 113.164062 211.972656 112.871094 211.351562 112.585938 C 210.734375 112.292969 210.097656 112.066406 209.496094 111.804688 C 208.886719 111.554688 208.296875 111.292969 207.703125 111.09375 C 206.523438 110.667969 205.410156 110.25 204.359375 109.9375 C 203.835938 109.773438 203.335938 109.613281 202.859375 109.464844 C 202.375 109.332031 201.917969 109.207031 201.488281 109.089844 C 201.058594 108.972656 200.65625 108.863281 200.28125 108.761719 C 199.910156 108.660156 199.558594 108.597656 199.25 108.523438 C 197.996094 108.238281 197.28125 108.074219 197.28125 108.074219 C 197.28125 108.074219 198.007812 108.183594 199.277344 108.375 C 199.59375 108.425781 199.949219 108.46875 200.328125 108.546875 C 200.707031 108.625 201.117188 108.710938 201.558594 108.800781 C 201.996094 108.894531 202.464844 108.992188 202.957031 109.09375 C 203.441406 109.222656 203.953125 109.359375 204.484375 109.5 C 205.019531 109.652344 205.582031 109.773438 206.148438 109.964844 C 206.714844 110.148438 207.300781 110.339844 207.902344 110.535156 C 208.507812 110.71875 209.113281 110.960938 209.734375 111.195312 C 210.355469 111.4375 210.996094 111.660156 211.628906 111.941406 C 212.261719 112.222656 212.90625 112.503906 213.558594 112.789062 C 214.214844 113.070312 214.84375 113.417969 215.496094 113.738281 C 215.820312 113.902344 216.144531 114.066406 216.472656 114.230469 C 216.796875 114.402344 217.113281 114.589844 217.433594 114.769531 C 218.070312 115.132812 218.722656 115.480469 219.355469 115.863281 C 219.980469 116.257812 220.601562 116.652344 221.222656 117.046875 C 221.847656 117.429688 222.433594 117.875 223.035156 118.285156 C 223.332031 118.492188 223.628906 118.699219 223.921875 118.90625 C 224.214844 119.117188 224.492188 119.34375 224.777344 119.5625 C 225.335938 119.996094 225.890625 120.429688 226.4375 120.855469 C 226.960938 121.304688 227.476562 121.746094 227.984375 122.179688 C 228.234375 122.398438 228.488281 122.609375 228.726562 122.828125 C 228.964844 123.050781 229.199219 123.269531 229.429688 123.488281 C 229.890625 123.925781 230.335938 124.347656 230.769531 124.757812 C 231.183594 125.1875 231.582031 125.605469 231.964844 126.003906 C 232.339844 126.40625 232.71875 126.773438 233.046875 127.15625 C 233.378906 127.539062 233.6875 127.902344 233.980469 128.246094 C 234.273438 128.582031 234.546875 128.902344 234.800781 129.199219 C 235.039062 129.503906 235.257812 129.78125 235.457031 130.03125 C 236.242188 131.050781 236.691406 131.632812 236.691406 131.632812 " fill-opacity="1" fill-rule="nonzero"/></svg>